HIERARCHY
ROOT Hips
{
	OFFSET -3.958830 18.904000 13.208200
	CHANNELS 6 Xposition Yposition Zposition Zrotation Yrotation Xrotation 
	JOINT LHipJoint
	{
		OFFSET 0.000000 0.000000 0.000000
		CHANNELS 3 Zrotation Yrotation Xrotation
		JOINT LeftUpLeg
		{
			OFFSET 1.800000 -1.400000 0.085000
			CHANNELS 3 Zrotation Yrotation Xrotation
			JOINT LeftLeg
			{
				OFFSET 2.215000 -6.000000 0.000000
				CHANNELS 3 Zrotation Yrotation Xrotation
				JOINT LeftFoot
				{
					OFFSET 2.500000 -6.900000 0.000000
					CHANNELS 3 Zrotation Yrotation Xrotation
					JOINT LeftToeBase
					{
						OFFSET 0.200000 -0.500000 1.950000
						CHANNELS 3 Zrotation Yrotation Xrotation
						End Site
						{
							OFFSET 0.000000 0.000000 0.000000
						}
					}
				}
			}
		}
	}
	JOINT RHipJoint
	{
		OFFSET 0.000000 0.000000 0.000000
		CHANNELS 3 Zrotation Yrotation Xrotation
		JOINT RightUpLeg
		{
			OFFSET -1.800000 -1.400000 0.085000
			CHANNELS 3 Zrotation Yrotation Xrotation
			JOINT RightLeg
			{
				OFFSET -2.215000 -6.000000 0.000000
				CHANNELS 3 Zrotation Yrotation Xrotation
				JOINT RightFoot
				{
					OFFSET -2.500000 -6.900000 0.000000
					CHANNELS 3 Zrotation Yrotation Xrotation
					JOINT RightToeBase
					{
						OFFSET -0.200000 -0.500000 1.950000
						CHANNELS 3 Zrotation Yrotation Xrotation
						End Site
						{
							OFFSET 0.000000 0.000000 0.000000
						}
					}
				}
			}
		}
	}
	JOINT LowerBack
	{
		OFFSET 0.000000 0.000000 0.000000
		CHANNELS 3 Zrotation Yrotation Xrotation
		JOINT Spine
		{
			OFFSET -0.087000 1.940000 -0.288900
			CHANNELS 3 Zrotation Yrotation Xrotation
			JOINT Spine1
			{
				OFFSET 0.000000 1.950000 0.060000
				CHANNELS 3 Zrotation Yrotation Xrotation
				JOINT Neck
				{
					OFFSET 0.000000 0.000000 0.000000
					CHANNELS 3 Zrotation Yrotation Xrotation
					JOINT Neck1
					{
						OFFSET 0.000000 1.600000 0.340000
						CHANNELS 3 Zrotation Yrotation Xrotation
						JOINT Head
						{
							OFFSET 0.000000 1.667000 -0.240000
							CHANNELS 3 Zrotation Yrotation Xrotation
							End Site
							{
								OFFSET 0.000000 0.000000 0.000000
							}
						}
					}
				}
				JOINT LeftShoulder
				{
					OFFSET 0.000000 0.000000 0.000000
					CHANNELS 3 Zrotation Yrotation Xrotation
					JOINT LeftArm
					{
						OFFSET 2.700000 1.550000 -0.730000
						CHANNELS 3 Zrotation Yrotation Xrotation
						JOINT LeftForeArm
						{
							OFFSET 5.450000 0.000000 0.000000
							CHANNELS 3 Zrotation Yrotation Xrotation
							JOINT LeftHand
							{
								OFFSET 3.450000 0.000000 0.000000
								CHANNELS 3 Zrotation Yrotation Xrotation
								JOINT LeftHandIndex1
								{
									OFFSET 0.750000 0.000000 0.000000
									CHANNELS 3 Zrotation Yrotation Xrotation
									End Site
									{
										OFFSET 0.000000 0.000000 0.000000
									}
								}
							}
						}
					}
				}
				JOINT RightShoulder
				{
					OFFSET 0.000000 0.000000 0.000000
					CHANNELS 3 Zrotation Yrotation Xrotation
					JOINT RightArm
					{
						OFFSET -2.700000 1.550000 -0.730000
						CHANNELS 3 Zrotation Yrotation Xrotation
						JOINT RightForeArm
						{
							OFFSET -5.450000 0.000000 0.000000
							CHANNELS 3 Zrotation Yrotation Xrotation
							JOINT RightHand
							{
								OFFSET -3.450000 0.000000 0.000000
								CHANNELS 3 Zrotation Yrotation Xrotation
								JOINT RightHandIndex1
								{
									OFFSET -0.750000 0.000000 0.000000
									CHANNELS 3 Zrotation Yrotation Xrotation
									End Site
									{
										OFFSET 0.000000 0.000000 0.000000
									}
								}
							}
						}
					}
				}
			}
		}
	}
}
MOTION
Frames: 9
Frame Time: 0.016667
0.402070 17.245340 -7.859790 7.285986 16.442446 10.087562 -14.536017 10.564694 4.698851 13.356428 -1.634647 -43.781987 -12.493681 11.863901 28.848022 -0.285339 6.640606 1.831278 0.308380 0.041340 0.342200 19.027634 -10.760512 3.179348 -25.673515 8.890775 -24.215157 17.061821 -8.864711 23.070714 -0.339687 -4.874331 2.279243 0.045620 -0.162480 0.115750 -5.934898 2.665568 -8.540414 29.600548 -4.116317 25.082028 -29.269371 2.877258 2.828167 9.510610 -10.391799 -10.076531 -21.406145 15.467697 56.331869 -8.202730 -1.290990 -12.390210 -28.233673 -0.808175 -1.300182 -51.529918 12.462134 -11.815614 -16.716268 -2.524867 -2.584426 -3.389569 2.534905 0.639210 -0.260960 0.199270 -0.097990 7.009630 10.880133 7.699726 54.927469 20.186277 0.535821 172.711562 61.663127 153.643265 2.102600 -1.488612 -0.109550 0.166900 0.127200 -0.188080 
0.486020 17.114270 -7.843680 6.906279 18.315273 10.172099 -14.465872 10.920215 4.058831 10.766366 -2.359962 -39.895318 -9.004416 8.609975 23.614636 -0.506554 4.951059 2.486944 0.290130 0.017710 0.317960 19.025631 -10.951282 3.421774 -26.605718 9.033739 -24.136490 18.951614 -9.601062 23.518172 -0.375673 -5.249719 2.154659 0.043630 -0.115720 0.109580 -6.088181 2.652524 -8.245369 31.945233 -4.154896 22.554589 -28.882379 2.259915 2.988389 9.339195 -11.449083 -9.438271 -23.053986 16.265232 54.759988 -8.734420 -1.157820 -11.359140 -28.614762 0.640994 -1.958600 -52.070101 12.118251 -10.994964 -16.216557 0.310418 -2.765930 -3.458786 2.476352 0.607480 -0.231010 0.162100 -0.082150 7.621321 9.983740 7.677749 58.129491 21.806234 2.776234 179.004912 62.463155 164.994268 2.080266 -1.552937 -0.124930 0.185130 0.134570 -0.174680 
0.551070 16.989320 -7.834430 6.529893 20.267225 9.943954 -14.453923 11.211991 3.634550 9.005567 -2.706879 -36.614908 -6.450586 6.497510 19.440760 -0.624323 3.830236 2.927647 0.277410 0.006090 0.298860 18.989640 -11.036525 3.570081 -27.201867 9.054344 -23.760550 20.534111 -10.377165 24.275186 -0.423486 -5.605989 2.031853 0.037510 -0.098420 0.108220 -6.114272 2.471251 -8.060387 33.294988 -4.441845 21.224149 -27.855063 1.516517 3.023097 9.260245 -12.360597 -9.284241 -24.521419 17.114646 53.494493 -9.086200 -0.894480 -10.949210 -28.652813 1.607731 -2.323694 -53.010877 11.741787 -10.344202 -14.818504 2.252940 -2.717077 -3.515551 2.445518 0.587180 -0.221570 0.145240 -0.079180 7.835964 9.812788 7.878946 61.197899 23.599997 5.196853 -172.170759 62.101532 179.452036 2.106091 -1.619868 -0.123730 0.183700 0.141180 -0.162590 
0.602530 16.885240 -7.833290 6.421534 22.329476 9.506338 -14.475134 11.457677 3.360504 7.617464 -2.957096 -33.678919 -4.748174 5.148525 16.183395 -0.711431 3.159208 3.211990 0.265290 -0.005770 0.288760 18.935078 -11.072844 3.633891 -27.645575 8.796787 -23.220250 21.526099 -11.121836 25.211793 -0.474409 -5.919569 1.923383 0.039750 -0.076370 0.107790 -6.073871 2.184729 -7.946642 33.654007 -5.081149 20.823525 -26.309969 0.401956 3.063074 9.035445 -13.007863 -9.024201 -25.274936 17.774413 52.022822 -9.540170 -0.256250 -11.361070 -28.868030 2.168302 -2.548042 -52.949184 10.992817 -9.429680 -14.367445 4.227122 -2.763136 -3.566463 2.411136 0.585700 -0.209410 0.135870 -0.076480 8.555557 9.726829 7.775863 64.001028 25.680865 7.640566 -165.128122 61.641684 -169.009086 2.135019 -1.630810 -0.139290 0.202330 0.152790 -0.161340 
0.639290 16.812240 -7.849310 6.504696 23.631795 9.308194 -14.508505 11.626919 3.209553 6.554416 -3.124601 -31.306965 -3.942383 4.337663 13.469775 -0.752975 2.761767 3.390389 0.283840 0.027110 0.288870 18.892886 -11.066224 3.646084 -27.831168 8.578330 -23.684958 21.367933 -11.700319 27.038257 -0.512410 -6.153307 1.845789 0.062190 -0.064930 0.106030 -5.999339 1.898312 -7.865708 33.339656 -6.088536 21.018752 -24.669554 -0.899599 3.672871 8.578486 -13.862378 -9.174010 -27.146933 18.828977 49.467830 -9.745980 0.151570 -12.273840 -28.991861 1.496622 -2.096429 -52.938949 10.228598 -8.864258 -14.161435 4.640738 -2.719096 -3.580546 2.444296 0.568130 -0.202830 0.130760 -0.063040 9.850230 10.974214 7.583474 65.600862 28.804503 10.404466 -158.729940 61.020387 -158.681771 2.173617 -1.619635 -0.134680 0.215570 0.143270 -0.150350 
0.664970 16.765630 -7.865700 6.520578 24.168649 9.247720 -14.548385 11.752565 3.136899 6.286115 -3.110731 -29.150366 -4.114288 3.865303 10.600702 -0.799199 2.589487 3.470469 0.303180 0.065260 0.269260 18.855744 -11.022500 3.612910 -27.603480 8.331616 -24.641911 20.385417 -12.013376 29.132168 -0.529643 -6.305376 1.794300 0.100370 -0.041120 0.109970 -5.885501 1.579135 -7.814089 32.086883 -7.044606 21.596834 -22.243713 -2.258959 4.442186 7.672122 -14.728274 -9.385613 -29.351101 20.362762 46.511629 -9.045750 0.623800 -13.355480 -28.284870 0.730484 -1.389215 -54.231198 9.344572 -8.584882 -12.842178 4.109480 -2.474212 -3.625837 2.495894 0.560340 -0.188650 0.120180 -0.049210 11.340445 12.249062 7.247527 66.168019 32.180415 13.428646 -153.775892 60.260032 -150.170769 2.179548 -1.592681 -0.140620 0.232990 0.149790 -0.140750 
0.684070 16.747760 -7.890580 6.145925 24.107257 9.317373 -14.579718 11.852453 3.134228 6.170992 -3.070500 -28.219960 -3.836052 3.554821 8.949040 -0.837600 2.510066 3.506988 0.323450 0.090330 0.276460 18.823096 -11.013921 3.556458 -26.626444 8.182950 -25.755117 18.614852 -11.760538 30.723496 -0.514820 -6.250379 1.809502 0.129510 -0.031760 0.122790 -5.784251 1.355751 -7.792144 30.820253 -7.578785 22.665166 -19.854546 -3.030167 5.251531 6.728170 -15.067213 -9.443375 -29.970382 20.755487 44.037659 -8.778940 1.197930 -14.547980 -27.687174 -0.117841 -0.714468 -54.613901 8.636111 -8.398517 -12.614539 3.150855 -2.389407 -3.653011 2.551559 0.558800 -0.175420 0.115670 -0.045760 12.986841 13.294372 6.914017 66.584026 34.732266 15.503567 -151.230900 60.326952 -146.047415 2.174441 -1.576728 -0.146110 0.236160 0.151460 -0.146110 
0.699260 16.752510 -7.926280 5.345077 23.117323 9.759336 -14.602723 11.912674 3.179531 6.490855 -2.989151 -28.613768 -3.605969 3.517645 8.719498 -0.838573 2.511029 3.508892 0.331130 0.097870 0.287610 18.799930 -10.974445 3.561119 -25.191853 8.315165 -27.418230 16.880620 -11.110900 31.551077 -0.473858 -6.026778 1.892669 0.139360 -0.022810 0.127730 -5.680864 1.199493 -7.816662 29.539271 -7.561304 23.910398 -17.532733 -2.971686 5.976748 5.861310 -15.024747 -9.796062 -29.444945 20.434765 41.948528 -8.357020 2.011170 -14.948260 -26.407454 -1.255012 0.212282 -54.944084 8.376453 -8.682256 -14.087232 1.642196 -2.487715 -3.660100 2.617366 0.547940 -0.162100 0.107180 -0.041960 13.808387 14.765207 6.899893 66.398758 36.382974 16.102421 -148.996640 60.516121 -143.308067 2.191011 -1.562952 -0.149990 0.230530 0.143830 -0.152570 
0.716790 16.764370 -7.971260 4.466280 22.312086 10.325226 -14.624667 11.938115 3.250381 6.661366 -2.957350 -29.751793 -2.959512 3.470268 8.916094 -0.833566 2.485623 3.528406 0.301420 0.070950 0.269970 18.779883 -10.967490 3.547560 -23.555740 8.294079 -28.815745 14.942563 -10.267175 31.695755 -0.400072 -5.703892 2.031115 0.125820 0.010360 0.124560 -5.594447 1.124771 -7.847083 28.289286 -7.307630 25.022114 -14.993945 -2.644063 7.220523 4.904956 -14.679496 -10.399170 -27.920616 19.516755 39.869611 -8.106690 2.921080 -14.743330 -23.124580 -2.366272 1.651483 -56.294678 8.705743 -10.131855 -17.157618 -2.770903 -2.485332 -3.670657 2.684897 0.525960 -0.129070 0.079850 -0.041390 12.923154 16.156950 7.056895 66.411955 38.150000 16.153284 -146.134669 60.659743 -140.466368 2.224504 -1.527055 -0.165120 0.230580 0.150290 -0.155740 
